HIERARCHY
ROOT Hips
{
 OFFSET 0.000000 0.000000 0.000000
 CHANNELS 6 Xposition Yposition Zposition Yrotation Xrotation Zrotation
 JOINT Chest
 {
  OFFSET 0.000000 13.173100 -0.061900
  CHANNELS 3 Yrotation Xrotation Zrotation
  JOINT Chest2
  {
   OFFSET 0.000000 8.040800 0.126200
   CHANNELS 3 Yrotation Xrotation Zrotation
   JOINT Chest3
   {
    OFFSET 0.000000 7.994400 0.000000
    CHANNELS 3 Yrotation Xrotation Zrotation
    JOINT Chest4
    {
     OFFSET 0.000000 7.986200 0.000000
     CHANNELS 3 Yrotation Xrotation Zrotation
     JOINT Neck
     {
      OFFSET 0.000000 12.259400 0.000000
      CHANNELS 3 Yrotation Xrotation Zrotation
      JOINT Head
      {
       OFFSET 0.000000 7.518700 0.267100
       CHANNELS 3 Yrotation Xrotation Zrotation
       End Site
       {
        OFFSET 0.000000 13.617700 0.141000
       }
      }
     }
     JOINT RightCollar
     {
      OFFSET -2.983800 8.314300 0.000000
      CHANNELS 3 Yrotation Xrotation Zrotation
      JOINT RightShoulder
      {
       OFFSET -16.133400 0.000000 0.000000
       CHANNELS 3 Yrotation Xrotation Zrotation
       JOINT RightElbow
       {
        OFFSET 0.000000 -29.822100 0.000000
        CHANNELS 3 Yrotation Xrotation Zrotation
        JOINT RightWrist
        {
         OFFSET 0.000000 -24.437700 0.010900
         CHANNELS 3 Yrotation Xrotation Zrotation
         End Site
         {
          OFFSET 0.000000 -18.312300 0.000000
         }
        }
       }
      }
     }
     JOINT LeftCollar
     {
      OFFSET 2.983800 8.314300 0.000000
      CHANNELS 3 Yrotation Xrotation Zrotation
      JOINT LeftShoulder
      {
       OFFSET 16.133400 0.000000 0.000000
       CHANNELS 3 Yrotation Xrotation Zrotation
       JOINT LeftElbow
       {
        OFFSET 0.000000 -29.822100 0.000000
        CHANNELS 3 Yrotation Xrotation Zrotation
        JOINT LeftWrist
        {
         OFFSET 0.000000 -24.437700 0.010900
         CHANNELS 3 Yrotation Xrotation Zrotation
         End Site
         {
          OFFSET 0.000000 -18.312300 0.000000
         }
        }
       }
      }
     }
    }
   }
  }
 }
 JOINT RightHip
 {
  OFFSET -11.206700 0.306200 0.030900
  CHANNELS 3 Yrotation Xrotation Zrotation
  JOINT RightKnee
  {
   OFFSET 0.000000 -57.334900 0.009400
   CHANNELS 3 Yrotation Xrotation Zrotation
   JOINT RightAnkle
   {
    OFFSET 0.000000 -43.376200 0.036600
    CHANNELS 3 Yrotation Xrotation Zrotation
    JOINT RightToe
    {
     OFFSET 0.000000 -10.035500 18.363100
     CHANNELS 3 Yrotation Xrotation Zrotation
     End Site
     {
      OFFSET 0.000000 -1.618500 7.239000
     }
    }
   }
  }
 }
 JOINT LeftHip
 {
  OFFSET 11.206700 0.306200 0.030900
  CHANNELS 3 Yrotation Xrotation Zrotation
  JOINT LeftKnee
  {
   OFFSET 0.000000 -57.334900 0.009400
   CHANNELS 3 Yrotation Xrotation Zrotation
   JOINT LeftAnkle
   {
    OFFSET 0.000000 -43.376200 0.036600
    CHANNELS 3 Yrotation Xrotation Zrotation
    JOINT LeftToe
    {
     OFFSET 0.000000 -10.035500 18.363100
     CHANNELS 3 Yrotation Xrotation Zrotation
     End Site
     {
      OFFSET 0.000000 -1.618500 7.239000
     }
    }
   }
  }
 }
}
MOTION
Frames: 11
Frame Time: 0.008333
0.000000 110.232800 0.000000 0.000000 -5.767877 0.000000 0.000000 11.653817 0.000000 0.000000 -5.885947 0.000000 0.000000 -0.000000 0.000000 0.000000 -0.000000 0.000000 0.000000 12.528835 0.000000 0.000000 0.711642 0.000000 0.000000 -0.000000 0.000000 0.000000 0.000000 -90.000000 0.000000 -2.309062 0.000000 0.000000 2.309062 0.000000 0.000000 -0.000000 0.000000 0.000000 -0.000000 90.000000 0.000000 -2.309062 0.000000 0.000000 2.309062 0.000000 0.000000 8.520406 0.000000 0.000000 1.905762 0.000000 -0.000000 -4.658285 0.000000 0.000000 -0.000000 0.000000 0.000000 8.520406 0.000000 0.000000 1.905762 0.000000 -0.000000 -4.658285 0.000000 0.000000 -0.000000 0.000000
-97.454233 64.578413 87.062601 174.335303 -36.348773 -3.017361 2.599304 20.970552 2.569550 0.316991 2.789639 0.436205 0.499757 4.588334 0.694793 2.375662 17.911122 3.065218 2.916676 17.576344 1.319753 4.936273 -3.153546 1.458416 -3.539026 3.666347 -1.472662 -3.982286 -4.636490 2.773519 145.536904 -80.088973 -136.635191 4.317773 -2.113922 -2.565743 -6.658700 -0.009594 0.072409 -1.822202 -14.176015 4.587966 -151.283580 -55.953274 137.332363 -16.178662 -35.437664 33.460120 -4.278164 -44.351251 3.439814 176.469973 88.191258 -178.949417 -1.471130 -10.063768 -3.650362 0.054787 -0.209896 0.026665 -3.523923 -41.239280 4.710673 73.957058 83.814593 63.401909 -5.778379 -14.187096 8.409866 0.321894 1.201638 0.194544
-97.455438 64.576677 87.062974 174.328084 -36.353731 -3.018869 2.592452 20.993900 2.558508 0.322256 2.788666 0.438010 0.508216 4.577014 0.701691 2.364187 17.939787 3.056464 2.907340 17.543061 1.320404 4.850173 -3.247345 1.466801 -3.553121 3.694404 -1.459172 -3.963305 -4.658291 2.772833 145.542271 -80.073944 -136.645370 4.284307 -2.161513 -2.600647 -6.671527 0.070738 0.056465 -1.779503 -14.132895 4.601452 -151.500257 -56.074149 137.498369 -16.145867 -35.386548 33.409829 -4.281488 -44.347067 3.447326 176.326551 88.192871 -179.091121 -1.472742 -10.064028 -3.652735 0.055227 -0.210713 0.025696 -3.530829 -41.233748 4.721759 73.989659 83.811260 63.428780 -5.784960 -14.189025 8.407045 0.323935 1.202690 0.190791
-97.462791 64.571329 87.067343 174.340597 -36.332473 -3.010478 2.558216 20.997226 2.522635 0.322069 2.790535 0.436926 0.508702 4.586562 0.701254 2.356064 17.963830 3.051998 2.911341 17.486195 1.318807 4.757214 -3.369723 1.469979 -3.555080 3.702641 -1.444167 -3.943052 -4.681091 2.770479 145.509886 -80.052192 -136.622245 4.269703 -2.202448 -2.616990 -6.653868 0.106944 0.048083 -1.729451 -14.061360 4.604350 -151.769558 -56.227707 137.703553 -16.091568 -35.311303 33.344272 -4.300787 -44.372854 3.434218 176.142185 88.183339 -179.285436 -1.471658 -10.068909 -3.657424 0.055737 -0.209069 0.025929 -3.537563 -41.256148 4.704292 73.968678 83.821692 63.408283 -5.802411 -14.205716 8.392751 0.347735 1.221657 0.203436
-97.465529 64.569274 87.068497 174.340419 -36.332210 -3.016182 2.542690 21.021841 2.512506 0.303211 2.828413 0.424525 0.528129 4.565060 0.709079 2.336460 18.000395 3.043922 2.890090 17.405563 1.310648 4.695460 -3.507757 1.458631 -3.544480 3.693685 -1.430270 -3.928007 -4.703044 2.767985 145.451474 -80.029996 -136.571158 4.259634 -2.239995 -2.620690 -6.614090 0.079492 0.050998 -1.657735 -13.939949 4.591170 -152.090532 -56.411204 137.941448 -16.018177 -35.213476 33.268300 -4.310666 -44.373208 3.440599 175.994655 88.184579 -179.428125 -1.475482 -10.067854 -3.665652 0.057999 -0.210166 0.027798 -3.548496 -41.256257 4.712250 73.957802 83.821509 63.395344 -5.804893 -14.205917 8.388696 0.351968 1.223870 0.204358
-97.468729 64.567609 87.069543 174.338371 -36.331798 -3.021350 2.526726 21.047750 2.503167 0.302040 2.835821 0.424061 0.528865 4.574672 0.707616 2.322616 18.023378 3.036767 2.786050 17.315997 1.285747 4.709095 -3.637511 1.432222 -3.539292 3.696231 -1.421105 -3.920188 -4.722298 2.766028 145.372349 -80.007913 -136.496789 4.248979 -2.275084 -2.616026 -6.578163 0.065023 0.049051 -1.563165 -13.815317 4.576513 -152.456473 -56.624779 138.209449 -15.926627 -35.105497 33.176464 -4.333603 -44.372492 3.456547 176.209366 88.186865 -179.218327 -1.466068 -10.067331 -3.674797 0.060797 -0.209678 0.029357 -3.554396 -41.256380 4.719214 73.949424 83.820076 63.386757 -5.811630 -14.205091 8.385989 0.360753 1.225252 0.207307
-97.472410 64.566569 87.070130 174.337381 -36.332828 -3.027059 2.511445 21.076371 2.493059 0.309955 2.825909 0.429302 0.502484 4.625495 0.698809 2.328640 18.025359 3.030063 2.753334 17.234251 1.270081 4.654783 -3.789344 1.412178 -3.519134 3.661533 -1.411918 -3.936312 -4.702733 2.766068 145.284743 -79.984024 -136.408570 4.232912 -2.314542 -2.604406 -6.536061 0.185242 0.012609 -1.468060 -13.822376 4.601909 -152.856526 -56.865061 138.501773 -15.825554 -34.997679 33.073741 -4.374755 -44.367271 3.478551 176.171902 88.188938 -179.267067 -1.456096 -10.070568 -3.690490 0.058877 -0.207277 0.030574 -3.564119 -41.255453 4.725935 73.961213 83.816094 63.395566 -5.814792 -14.202255 8.384699 0.359273 1.223301 0.206051
-97.475492 64.565790 87.070815 174.334085 -36.333240 -3.035924 2.510138 21.090151 2.496157 0.307560 2.830508 0.429004 0.501581 4.631554 0.698483 2.314162 18.071992 3.019569 2.717526 17.150448 1.253454 4.595080 -3.945030 1.391321 -3.505309 3.625627 -1.399977 -3.958462 -4.675226 2.767909 145.246028 -79.965164 -136.363644 4.221435 -2.366984 -2.584565 -6.499092 0.260449 -0.011607 -1.355210 -13.779369 4.614308 -153.270961 -57.124581 138.806622 -15.725393 -34.894577 32.974347 -4.396649 -44.363709 3.493860 176.299229 88.191527 -179.135708 -1.447178 -10.069495 -3.705976 0.059886 -0.208060 0.032070 -3.573656 -41.256362 4.734021 73.996830 83.809520 63.433093 -5.812915 -14.199309 8.380890 0.362775 1.219595 0.204477
-97.478614 64.566190 87.070035 174.332323 -36.341003 -3.046664 2.510479 21.110535 2.501398 0.300555 2.852601 0.423386 0.500750 4.645545 0.698129 2.320128 18.057543 3.020395 2.665323 17.096813 1.235829 4.531590 -4.101566 1.368026 -3.537341 3.712316 -1.379730 -3.955302 -4.728466 2.763925 145.294923 -79.959287 -136.403154 4.217789 -2.415316 -2.583585 -6.475631 0.348631 -0.036206 -1.231936 -13.706061 4.618268 -153.676753 -57.391996 139.112475 -15.632613 -34.797131 32.886656 -4.410225 -44.352562 3.511574 176.327026 88.194182 -179.109164 -1.451282 -10.068411 -3.706729 0.058538 -0.210206 0.031244 -3.580970 -41.249914 4.741138 74.031608 83.805258 63.472191 -5.810440 -14.194766 8.376733 0.362638 1.213499 0.203757
-97.482389 64.566479 87.069244 174.334693 -36.347857 -3.058763 2.487972 21.162141 2.488511 0.315245 2.839892 0.430433 0.480280 4.696709 0.691356 2.321156 18.051514 3.017270 2.652043 17.003889 1.220021 4.455423 -4.267057 1.340664 -3.507927 3.666124 -1.370208 -3.987837 -4.680956 2.769700 145.424954 -79.965094 -136.520908 4.098775 -2.478698 -2.612219 -6.423330 0.400408 -0.060379 -1.103712 -13.625102 4.621426 -154.059450 -57.655679 139.406674 -15.554441 -34.705297 32.817010 -4.432373 -44.340920 3.529428 176.476552 88.200452 -178.963657 -1.446149 -10.070624 -3.708020 0.059643 -0.208657 0.029259 -3.591824 -41.245063 4.745937 74.061304 83.800519 63.507412 -5.806415 -14.188525 8.372113 0.356432 1.207171 0.201592
-97.478452 64.570205 87.065040 174.308093 -36.379449 -3.087177 2.511270 21.210713 2.522626 0.302337 2.867817 0.425212 0.501830 4.668610 0.699759 2.291930 18.102145 3.008597 2.675356 16.929735 1.210563 4.354822 -4.448947 1.312346 -3.474711 3.624889 -1.363708 -4.019176 -4.627066 2.776841 145.632711 -79.978655 -136.716122 4.031430 -2.545981 -2.616223 -6.363142 0.460187 -0.090465 -0.966749 -13.533784 4.622004 -154.416381 -57.913454 139.682821 -15.490289 -34.618695 32.764574 -4.454839 -44.298314 3.588724 176.268769 88.214227 -179.165815 -1.449247 -10.065092 -3.715174 0.054704 -0.210306 0.027390 -3.609136 -41.214057 4.795827 74.103923 83.797993 63.555073 -5.781172 -14.170604 8.374454 0.334093 1.184507 0.186437
